<?xml version="1.0" encoding="UTF-8"?>
<svg width="128" height="128" version="1.1" viewBox="0 0 33.867 33.867" xmlns="http://www.w3.org/2000/svg">
<g transform="translate(.51089)">
<path d="m4.4653 5.2116v0.030718l-0.030671 0.27646v20.274q0 0.61436 0.61478 0.61436h22.746q0.61476 0 0.61476-0.61436v-20.551l-0.03068-0.030718q-0.12291-0.30718-0.58403-0.30718h-22.746q-0.46108 0-0.58404 0.30718m-1.875 0.30718 0.061574-0.58365q0.24592-1.8738 2.3976-1.8738h22.746q2.1517 0 2.4283 1.8738l0.03068 0.58365v20.274q0 2.4575-2.4591 2.4575h-22.746q-2.4591 0-2.4591-2.4575v-20.274" fill="#e86a17" stroke-width=".61457"/>
<path d="m4.4653 5.2116q0.12291-0.30718 0.58404-0.30718h22.746q0.46108 0 0.58404 0.30718l0.03068 0.030718v20.551q0 0.61436-0.61476 0.61436h-22.746q-0.61478 0-0.61478-0.61436v-20.274l0.030671-0.27646v-0.030718" fill="#eee" stroke-width=".61457"/>
<path d="m2.5902 5.5188v20.274q0 2.4575 2.4591 2.4575h22.746q2.4591 0 2.4591-2.4575v-20.274l-0.03067-0.58365q-0.27666-1.8738-2.4284-1.8738h-22.746q-2.1517 0-2.3976 1.8738l-0.061574 0.58365m-1.2295 20.428v-20.428q0-3.6862 3.6886-3.6862h22.746q3.6886 0 3.6886 3.6862v20.428q-0.09225 3.5326-3.6886 3.5326h-22.746q-3.5964 0-3.6886-3.5326" fill="#d5d5d5" stroke-width=".61457"/>
<path d="m1.3607 25.946q0.092245 3.5326 3.6886 3.5326h22.746q3.5964 0 3.6886-3.5326v2.3039q0 3.6862-3.6886 3.6862h-22.746q-3.6886 0-3.6886-3.6862v-2.3039" fill="#aaa" stroke-width=".61457"/>
<g transform="matrix(.39202 0 0 .42448 -5.1321 -11.692)" fill="#f00" style="shape-inside:url(#rect7258);white-space:pre" aria-label="BT">
<path d="m32.469 79.3h9.36c6.56 0 11.12-2.84 11.12-8.6 0-4-2.48-6.32-5.96-7v-0.2c2.72-0.88 4.28-3.44 4.28-6.36 0-5.16-4.12-7.2-10.08-7.2h-8.72zm3.72-16.84v-9.56h4.52c4.56 0 6.92 1.28 6.92 4.72 0 2.96-2.04 4.84-7.08 4.84zm0 13.88v-11.08h5.12c5.12 0 8 1.68 8 5.32 0 3.96-2.96 5.76-8 5.76z"/>
<path d="m63.789 79.3h3.72v-26.2h8.88v-3.16h-21.48v3.16h8.88z"/>
</g>
</g>
</svg>
